<svg width="390" height="77" viewBox="0 0 390 77" fill="none" xmlns="http://www.w3.org/2000/svg">
<g clip-path="url(#clip0_15019_29)">
<rect width="390" height="77" rx="20" fill="black"/>
<path d="M93.2102 25.7302C93.2102 25.4548 93.101 25.1906 92.9066 24.9959C92.7123 24.8011 92.4486 24.6917 92.1737 24.6917C91.8989 24.6917 91.6352 24.8011 91.4408 24.9959C91.2465 25.1906 91.1373 25.4548 91.1373 25.7302H93.2102ZM73.8627 25.7302C73.8627 25.4548 73.7535 25.1906 73.5592 24.9959C73.3648 24.8011 73.1011 24.6917 72.8263 24.6917C72.5514 24.6917 72.2877 24.8011 72.0934 24.9959C71.899 25.1906 71.7898 25.4548 71.7898 25.7302H73.8627ZM94.2052 29.2334C94.3001 29.3354 94.4145 29.4173 94.5417 29.474C94.6688 29.5308 94.8061 29.5613 94.9452 29.5638C95.0844 29.5662 95.2226 29.5406 95.3517 29.4884C95.4808 29.4361 95.598 29.3584 95.6964 29.2598C95.7948 29.1612 95.8724 29.0437 95.9246 28.9144C95.9767 28.7851 96.0023 28.6466 95.9998 28.5071C95.9974 28.3677 95.9669 28.2302 95.9103 28.1028C95.8536 27.9754 95.7719 27.8607 95.6701 27.7657L94.2052 29.2334ZM82.5 16.0376L83.2324 15.3037C83.0381 15.1092 82.7747 15 82.5 15C82.2253 15 81.9619 15.1092 81.7676 15.3037L82.5 16.0376ZM69.3299 27.7657C69.2281 27.8607 69.1464 27.9754 69.0897 28.1028C69.0331 28.2302 69.0026 28.3677 69.0002 28.5071C68.9977 28.6466 69.0233 28.7851 69.0754 28.9144C69.1276 29.0437 69.2052 29.1612 69.3036 29.2598C69.402 29.3584 69.5192 29.4361 69.6483 29.4884C69.7774 29.5406 69.9156 29.5662 70.0548 29.5638C70.1939 29.5613 70.3312 29.5308 70.4583 29.474C70.5855 29.4173 70.6999 29.3354 70.7948 29.2334L69.3299 27.7657ZM75.5902 42H89.4098V39.923H75.5902V42ZM93.2102 38.1922V25.7302H91.1373V38.1922H93.2102ZM73.8627 38.1922V25.7302H71.7898V38.1922H73.8627ZM95.6701 27.7657L83.2324 15.3037L81.7676 16.7715L94.2052 29.2334L95.6701 27.7657ZM81.7676 15.3037L69.3299 27.7657L70.7948 29.2334L83.2324 16.7715L81.7676 15.3037ZM89.4098 42C90.4177 42 91.3844 41.5988 92.0971 40.8847C92.8098 40.1706 93.2102 39.2021 93.2102 38.1922H91.1373C91.1373 39.1476 90.3634 39.923 89.4098 39.923V42ZM75.5902 39.923C74.6366 39.923 73.8627 39.1476 73.8627 38.1922H71.7898C71.7898 39.2021 72.1902 40.1706 72.9029 40.8847C73.6156 41.5988 74.5823 42 75.5902 42V39.923Z" fill="#F5F5F5"/>
<path d="M319.657 31.9319L317.649 30.2443C317.744 29.6717 317.793 29.0871 317.793 28.5024C317.793 27.9178 317.744 27.3332 317.649 26.7606L319.657 25.073C319.808 24.9455 319.917 24.7758 319.967 24.5863C320.018 24.3968 320.009 24.1965 319.942 24.0122L319.914 23.9338C319.361 22.415 318.534 21.0071 317.471 19.7781L317.416 19.7148C317.287 19.5658 317.115 19.4586 316.923 19.4075C316.731 19.3564 316.528 19.3637 316.34 19.4285L313.848 20.2994C312.928 19.5581 311.901 18.9734 310.792 18.5636L310.311 16.002C310.274 15.8093 310.179 15.632 310.038 15.4936C309.897 15.3553 309.716 15.2625 309.52 15.2275L309.437 15.2125C307.84 14.9292 306.16 14.9292 304.563 15.2125L304.48 15.2275C304.284 15.2625 304.103 15.3553 303.962 15.4936C303.821 15.632 303.726 15.8093 303.689 16.002L303.205 18.5756C302.104 18.9856 301.079 19.5699 300.17 20.3054L297.66 19.4285C297.472 19.3632 297.269 19.3557 297.077 19.4068C296.884 19.4579 296.713 19.5653 296.584 19.7148L296.529 19.7781C295.468 21.008 294.64 22.4157 294.086 23.9338L294.058 24.0122C293.92 24.3889 294.034 24.8108 294.343 25.073L296.376 26.7787C296.281 27.3452 296.235 27.9238 296.235 28.4994C296.235 29.078 296.281 29.6567 296.376 30.2202L294.343 31.9259C294.192 32.0534 294.083 32.2231 294.033 32.4126C293.982 32.6021 293.991 32.8023 294.058 32.9867L294.086 33.065C294.641 34.5839 295.462 35.9852 296.529 37.2208L296.584 37.2841C296.713 37.4331 296.885 37.5402 297.077 37.5913C297.269 37.6424 297.472 37.6351 297.66 37.5704L300.17 36.6934C301.084 37.4317 302.105 38.0164 303.205 38.4232L303.689 40.9968C303.726 41.1896 303.821 41.3669 303.962 41.5052C304.103 41.6436 304.284 41.7364 304.48 41.7713L304.563 41.7864C306.175 42.0712 307.825 42.0712 309.437 41.7864L309.52 41.7713C309.716 41.7364 309.897 41.6436 310.038 41.5052C310.179 41.3669 310.274 41.1896 310.311 40.9968L310.792 38.4353C311.901 38.0265 312.934 37.44 313.848 36.6994L316.34 37.5704C316.528 37.6356 316.731 37.6432 316.923 37.5921C317.116 37.5409 317.287 37.4335 317.416 37.2841L317.471 37.2208C318.538 35.9822 319.359 34.5839 319.914 33.065L319.942 32.9867C320.08 32.616 319.966 32.1941 319.657 31.9319ZM315.473 27.1162C315.549 27.5712 315.589 28.0383 315.589 28.5055C315.589 28.9726 315.549 29.4397 315.473 29.8947L315.27 31.1032L317.56 33.0289C317.213 33.8151 316.775 34.5593 316.254 35.2469L313.41 34.2554L312.447 35.0329C311.714 35.6236 310.899 36.0877 310.016 36.4132L308.848 36.8441L308.3 39.7673C307.434 39.8637 306.56 39.8637 305.694 39.7673L305.145 36.8381L303.987 36.4011C303.113 36.0756 302.301 35.6115 301.574 35.0239L300.612 34.2434L297.749 35.2439C297.228 34.5538 296.793 33.8094 296.443 33.0259L298.757 31.0821L298.558 29.8766C298.485 29.4276 298.445 28.9635 298.445 28.5055C298.445 28.0444 298.481 27.5833 298.558 27.1343L298.757 25.9288L296.443 23.9851C296.789 23.1985 297.228 22.4572 297.749 21.767L300.612 22.7676L301.574 21.987C302.301 21.3994 303.113 20.9353 303.987 20.6098L305.149 20.1789L305.697 17.2497C306.559 17.1532 307.438 17.1532 308.303 17.2497L308.851 20.1728L310.019 20.6038C310.899 20.9293 311.718 21.3934 312.45 21.984L313.413 22.7615L316.257 21.7701C316.778 22.4602 317.214 23.2045 317.563 23.9881L315.273 25.9138L315.473 27.1162ZM307.003 22.9002C304.024 22.9002 301.608 25.2749 301.608 28.2041C301.608 31.1333 304.024 33.508 307.003 33.508C309.983 33.508 312.398 31.1333 312.398 28.2041C312.398 25.2749 309.983 22.9002 307.003 22.9002ZM309.431 30.5909C309.112 30.9048 308.734 31.1538 308.317 31.3234C307.901 31.493 307.454 31.58 307.003 31.5793C306.087 31.5793 305.225 31.2267 304.575 30.5909C304.256 30.2778 304.003 29.9058 303.83 29.4962C303.658 29.0866 303.569 28.6474 303.57 28.2041C303.57 27.303 303.929 26.4562 304.575 25.8173C305.225 25.1784 306.087 24.8289 307.003 24.8289C307.92 24.8289 308.781 25.1784 309.431 25.8173C309.75 26.1304 310.003 26.5024 310.176 26.912C310.348 27.3216 310.437 27.7607 310.436 28.2041C310.436 29.1052 310.078 29.952 309.431 30.5909Z" fill="#F5F5F5"/>
<path d="M232.5 42C230.632 42 228.877 41.6454 227.235 40.9362C225.593 40.227 224.164 39.2653 222.949 38.0512C221.734 36.8363 220.772 35.4075 220.064 33.765C219.356 32.1225 219.001 30.3675 219 28.5C219 26.6325 219.355 24.8775 220.064 23.235C220.773 21.5925 221.735 20.1637 222.949 18.9488C224.164 17.7338 225.593 16.7721 227.235 16.0638C228.877 15.3555 230.632 15.0009 232.5 15H233.85V26.1712C234.255 26.4187 234.581 26.7396 234.829 27.1338C235.076 27.528 235.2 27.9834 235.2 28.5C235.2 29.2425 234.935 29.8783 234.406 30.4075C233.877 30.9367 233.242 31.2009 232.5 31.2C231.757 31.2 231.122 30.9354 230.592 30.4062C230.063 29.877 229.799 29.2416 229.8 28.5C229.8 27.9825 229.924 27.5212 230.171 27.1163C230.419 26.7112 230.745 26.3962 231.15 26.1712V23.2687C229.98 23.5837 229.012 24.2196 228.247 25.1763C227.483 26.133 227.1 27.2409 227.1 28.5C227.1 29.985 227.629 31.2562 228.686 32.3137C229.744 33.3712 231.015 33.9 232.5 33.9C233.985 33.9 235.256 33.3712 236.314 32.3137C237.371 31.2562 237.9 29.985 237.9 28.5C237.9 27.69 237.737 26.9416 237.41 26.2549C237.083 25.5682 236.639 24.9666 236.077 24.45L238.001 22.5262C238.789 23.2687 239.419 24.1521 239.891 25.1763C240.364 26.2005 240.6 27.3084 240.6 28.5C240.6 30.75 239.812 32.6625 238.237 34.2375C236.662 35.8125 234.75 36.6 232.5 36.6C230.25 36.6 228.337 35.8125 226.762 34.2375C225.187 32.6625 224.4 30.75 224.4 28.5C224.4 26.475 225.041 24.7141 226.324 23.2174C227.606 21.7207 229.215 20.8153 231.15 20.5012V17.7675C228.472 18.105 226.228 19.2863 224.416 21.3112C222.604 23.3362 221.699 25.7325 221.7 28.5C221.7 31.515 222.746 34.0687 224.839 36.1612C226.931 38.2537 229.485 39.3 232.5 39.3C235.515 39.3 238.069 38.2537 240.161 36.1612C242.254 34.0687 243.3 31.515 243.3 28.5C243.3 26.9475 242.996 25.4962 242.389 24.1462C241.781 22.7962 240.949 21.6262 239.891 20.6363L241.815 18.7125C243.097 19.95 244.116 21.4071 244.87 23.0838C245.624 24.7605 246.001 26.5659 246 28.5C246 30.3675 245.645 32.1225 244.936 33.765C244.227 35.4075 243.265 36.8363 242.051 38.0512C240.836 39.2662 239.407 40.2283 237.765 40.9375C236.122 41.6467 234.367 42.0009 232.5 42Z" fill="#F5F5F5"/>
<path d="M166.95 17.7H164.25V16.35C164.25 15.992 164.108 15.6486 163.855 15.3954C163.601 15.1422 163.258 15 162.9 15C162.542 15 162.199 15.1422 161.945 15.3954C161.692 15.6486 161.55 15.992 161.55 16.35V17.7H153.45V16.35C153.45 15.992 153.308 15.6486 153.055 15.3954C152.801 15.1422 152.458 15 152.1 15C151.742 15 151.399 15.1422 151.145 15.3954C150.892 15.6486 150.75 15.992 150.75 16.35V17.7H148.05C146.976 17.7 145.946 18.1267 145.186 18.8862C144.427 19.6457 144 20.6759 144 21.75V37.95C144 39.0241 144.427 40.0543 145.186 40.8138C145.946 41.5733 146.976 42 148.05 42H166.95C168.024 42 169.054 41.5733 169.814 40.8138C170.573 40.0543 171 39.0241 171 37.95V21.75C171 20.6759 170.573 19.6457 169.814 18.8862C169.054 18.1267 168.024 17.7 166.95 17.7ZM168.3 37.95C168.3 38.308 168.158 38.6514 167.905 38.9046C167.651 39.1578 167.308 39.3 166.95 39.3H148.05C147.692 39.3 147.349 39.1578 147.095 38.9046C146.842 38.6514 146.7 38.308 146.7 37.95V28.5H168.3V37.95ZM168.3 25.8H146.7V21.75C146.7 21.392 146.842 21.0486 147.095 20.7954C147.349 20.5422 147.692 20.4 148.05 20.4H150.75V21.75C150.75 22.108 150.892 22.4514 151.145 22.7046C151.399 22.9578 151.742 23.1 152.1 23.1C152.458 23.1 152.801 22.9578 153.055 22.7046C153.308 22.4514 153.45 22.108 153.45 21.75V20.4H161.55V21.75C161.55 22.108 161.692 22.4514 161.945 22.7046C162.199 22.9578 162.542 23.1 162.9 23.1C163.258 23.1 163.601 22.9578 163.855 22.7046C164.108 22.4514 164.25 22.108 164.25 21.75V20.4H166.95C167.308 20.4 167.651 20.5422 167.905 20.7954C168.158 21.0486 168.3 21.392 168.3 21.75V25.8Z" fill="#F5F5F5"/>
</g>
<defs>
<clipPath id="clip0_15019_29">
<rect width="390" height="77" fill="white"/>
</clipPath>
</defs>
</svg>
